<svg id="图层_1" data-name="图层 1" xmlns="http://www.w3.org/2000/svg" viewBox="0 0 90.79 116.2"><defs><style>.cls-1{fill:#cbcac5;}.cls-2{fill:#5c5646;}.cls-3{fill:#5e5649;}.cls-4{fill:#605b50;}.cls-5{fill:#5f584b;}.cls-6{fill:#676257;}.cls-7{fill:#7c796e;}.cls-8{fill:#656053;}.cls-9{fill:#757265;}.cls-10{fill:#5f5c50;}.cls-11{fill:#605b4e;}.cls-12{fill:#706b5f;}.cls-13{fill:#827f74;}.cls-14{fill:#565143;}.cls-15{fill:#69665c;}.cls-16{fill:#a8a69d;}.cls-17{fill:#5c5747;}.cls-18{fill:#5e594a;}.cls-19{fill:#5e5b4c;}.cls-20{fill:#565343;}.cls-21{fill:#5e5a4d;}.cls-22{fill:#5a543f;}.cls-23{fill:#676155;}.cls-24{fill:#5a5345;}.cls-25{fill:#626054;}.cls-26{fill:#5f594d;}.cls-27{fill:#625d4c;}.cls-28{fill:#a6a49e;}.cls-29{fill:#767265;}.cls-30{fill:#605d4e;}.cls-31{fill:#6a6358;}.cls-32{fill:#98948c;}.cls-33{fill:#696256;}.cls-34{fill:#645d51;}.cls-35{fill:#635f50;}.cls-36{fill:#615a4a;}.cls-37{fill:#595145;}.cls-38{fill:#555041;}.cls-39{fill:#58513e;}.cls-40{fill:#5b5443;}.cls-41{fill:#625e52;}.cls-42{fill:#61594d;}.cls-43{fill:#575142;}.cls-44{fill:#615a48;}.cls-45{fill:#646054;}</style></defs><title>branch</title><path class="cls-1" d="M45.5.9,47.3,3a3.39,3.39,0,0,1-4.6,0c-.1-.7-.1-1.4-.2-2.1Z" transform="translate(-1.6 -0.9)"/><path class="cls-2" d="M53.8,113.9a9.22,9.22,0,0,0-.5.8c-1.5,1-2.4,0-2.5-1.1-.4-4.9-4.5-7.9-6-12.1-.5-1.7-1.1-3.3-.3-5.1-.2-.2-.2-.4.1-.6.5-.5.7-1.2,1.4-1.5a2.38,2.38,0,0,1,2.4.7c-3.8-4.4-1.7-10.2-1.4-15.9a2.77,2.77,0,0,1,.3-1.3,6,6,0,0,0,1.4-3.6,32.52,32.52,0,0,1-.2-5.4c.1-1.1.2-2.6,1.5-2.8,1.5-.2,1.6,1.3,1.9,2.3a6.15,6.15,0,0,1,.2,1.9c-.1,1.6.3,2.2,1.6.7,2.5,4.9.8,10.3,1.7,15.4a1.25,1.25,0,0,1-2,1.2.84.84,0,0,0-.7-.4,5.22,5.22,0,0,0,.4,2.1c1.3,1.7,1.2,3.7.9,5.7-.2,1.8,2.2,2.3,2.1,4-.2,2.3.5,4.7-.5,6.9.1,1.8.4,3.6-.9,5.1-1.4.3-1.7-.3-1.3-1.5C52.6,110.9,53.7,112.3,53.8,113.9Z" transform="translate(-1.6 -0.9)"/><path class="cls-3" d="M51.4,12.9a1,1,0,0,1,.2.9c.7,5-.5,10.3,2.1,15h0c.7,1.8.2,3.6.4,5.4a1.64,1.64,0,0,1-.8,1.2c-2.3.7-3.6-2.4-5.9-1.6-1.3-1.6,0-3,.4-4.5.3-.6.9-.9,1.3-1.4a5,5,0,0,0,.5-2.7,4.59,4.59,0,0,1-.8,2.8c-1.7,1.6-2.8,3.4-1.4,5.8,3.2.4,4.1,2.7,4.5,5.4-.3,1.7-1.4,2.7-3,2.2-2.4-.7-3,1-3.9,2.5-1.2.9-2.2.3-3.2-.3a2.28,2.28,0,0,1-.6-1.2,4.24,4.24,0,0,1,.6-1.9,6.31,6.31,0,0,0,.8-2.3,2.92,2.92,0,0,1,.9-.2,24,24,0,0,0,.1-11,1,1,0,0,1-.2-.9c-.8-2.7-.2-5.5-.4-8.3-.7-2.2-.2-4.8-1.6-6.8v.1a1.85,1.85,0,0,1,.4-2.4c1.7-.5,3.4-.5,5.1-1a1.66,1.66,0,0,1,1.2.5C49.5,9.4,50.2,11.4,51.4,12.9Z" transform="translate(-1.6 -0.9)"/><path class="cls-4" d="M42.5,40.9l-1,1c-3.8,1.5-6-1.7-8.5-3.3-6.1-4-11.2-9.7-18.7-11.5l-1.7-.3c.3-3.6-2.8,0-3.4-1.6H8.9L8.6,25c-3-.3-2.6-4.1-5-4.9C2,19.2,1,18,2,16.4c.8-1.2,2.4-1.1,3.7-.6a29.3,29.3,0,0,1,3.9,2.1c1.2,2,3.8,2.1,5.2,3.8l-.2-.1c7.1.9,12.3,5.5,18.1,9v-.1a15.46,15.46,0,0,0,8.6,6.2.83.83,0,0,1,.3.8C41.7,38.8,41.6,40,42.5,40.9Z" transform="translate(-1.6 -0.9)"/><path class="cls-5" d="M45.5,101.7c2.9,2.8,5.3,5.9,5.9,10,.2,1.3,0,2.7,1.8,3-1.9.8-3.8,1.6-5.8,2.4-3.7-.4-4.1-3-4-6,.1-1.8.1-3.6.2-5.4C45.5,105,42.4,101.9,45.5,101.7Z" transform="translate(-1.6 -0.9)"/><path class="cls-6" d="M14.3,27c3.8-.9,6.5,1.2,9.3,3.4,4.7,3.6,9.5,6.9,14.2,10.4a5.42,5.42,0,0,0,3.7,1.1v1a.94.94,0,0,1-.1,1.3,2.26,2.26,0,0,1-2.1-.2C30.9,38.4,23.1,31.9,14.3,27Z" transform="translate(-1.6 -0.9)"/><path class="cls-7" d="M44.7,89.8c0-12.1,0-24.2-.1-36.3,0-1.8-.3-3.6-.4-5.4.3-.2.5-.3.8-.5,1.3.5,1.6,1.7,1.8,2.9.5,7.4.2,14.9.2,22.3,0,.6-.1,1.2-.1,1.8,0,1.2-.2,2.3-.3,3.5-.1,3.7.3,7.5-.5,11.2A1,1,0,0,1,44.7,89.8Z" transform="translate(-1.6 -0.9)"/><path class="cls-8" d="M32.7,30.7c-5.1-.4-8-4.9-12.5-6.7-1.8-.7-4.3-.2-5.6-2.4C22.2,21.6,27.7,25.7,32.7,30.7Z" transform="translate(-1.6 -0.9)"/><path class="cls-6" d="M41.2,36.9c-4.3-.1-7.6-1.6-8.6-6.2C35.5,32.8,38.4,34.8,41.2,36.9Z" transform="translate(-1.6 -0.9)"/><path class="cls-9" d="M42.5,8.9c-.4.7-.7,1.4-1.1,2.2-2-2.8.5-4.7,1.4-7,1-1.1,2.2-.4,3.4-.5a1.37,1.37,0,0,1,.8,1C45.9,6.4,43.7,7.2,42.5,8.9Z" transform="translate(-1.6 -0.9)"/><path class="cls-10" d="M45.5,101.7c-2,.7,1.4,3.9-1.9,4-.1-3.2-.4-6.3.8-9.4C44.8,98.2,45.1,100,45.5,101.7Z" transform="translate(-1.6 -0.9)"/><path class="cls-4" d="M43.6,26.9c1.4,3.7,1.7,7.3-.1,11C43.5,34.2,43.5,30.5,43.6,26.9Z" transform="translate(-1.6 -0.9)"/><path class="cls-11" d="M41.4,10.9c2.1,1.5,2.2,3.7,2.1,6-.4.5-.8.5-1.3.1C41,15.2,41.5,13,41.4,10.9Z" transform="translate(-1.6 -0.9)"/><path class="cls-12" d="M3.6,19.9c3.4-.1,2.7,3.9,5,4.9C4.8,25.4,5.2,21.6,3.6,19.9Z" transform="translate(-1.6 -0.9)"/><path class="cls-7" d="M39.4,43.9c.7,0,1.4-.1,2.2-.1,2.3.4,4,1.1,3.1,4-.2.1-.3.3-.5.4C42.6,46.7,41,45.3,39.4,43.9Z" transform="translate(-1.6 -0.9)"/><path class="cls-13" d="M42.2,17.1c.4,0,.9-.1,1.3-.1,0,3-.1,6.1-.1,9.1C42,23.2,42.8,20.1,42.2,17.1Z" transform="translate(-1.6 -0.9)"/><path class="cls-12" d="M14.8,21.8c-1.9-1-4.6-1-5.2-3.8C11.4,19.1,14.2,19,14.8,21.8Z" transform="translate(-1.6 -0.9)"/><path class="cls-14" d="M42.5,40.9c-1.7-.6-3-1.4-.9-3.2.3.1.6.2,1,.3C44.2,39,43.7,39.9,42.5,40.9Z" transform="translate(-1.6 -0.9)"/><path class="cls-15" d="M9.2,25c1,.8,4.5-3.5,3.4,1.6C11.5,26.1,10.3,25.6,9.2,25Z" transform="translate(-1.6 -0.9)"/><path class="cls-10" d="M44.7,89.8a2.2,2.2,0,0,0,.8-.1c1.1,1.7,1.4,3.3,0,5-.4.3-.7.7-1.1,1C44.5,93.8,44.6,91.8,44.7,89.8Z" transform="translate(-1.6 -0.9)"/><path class="cls-16" d="M46.4,4H42.7V3h4.6a2.92,2.92,0,0,1,.2.9A.71.71,0,0,1,46.4,4Z" transform="translate(-1.6 -0.9)"/><path class="cls-17" d="M45.7,73.8c0-8,0-15.9-.1-23.9,1.7-1.2.4-3.2,1.2-4.6a2.63,2.63,0,0,1,2.8-1.7c2.3,1.7,3.8,3.7,3.6,6.7-.3,1.5-1.9,3.1.2,4.5,3.4,4.5,1.8,9.7,2.1,14.6,1.1,5.7-.5,11.6.8,17.3,0,1.3.1,2.7.1,4-.7,1.5,0,3.6-2,4.4a2,2,0,0,1-2.1-.4c.4-1.8,1.3-3.7-1-5,1.1-1.1-.1-2.8,1-4,.7-.1,2.2,1.7,1.8.4-1.7-5.1.6-10.5-1.8-15.4-.5-2.2.5-4.4.3-6.6-.1-.7-1.2.1-.5-.1.3-.1.5,0,.4.2-.1,2.2,0,4.5-1.3,6.5-1.6-.9-.4-2.8-2-4.5v8.5C47.8,76.1,46.7,74.9,45.7,73.8Z" transform="translate(-1.6 -0.9)"/><path class="cls-18" d="M56.4,39.6c.3-.3.7-.5,1-.8,3.2-1.2,5.7-4.1,9.5-3.8a2.43,2.43,0,0,1,1.8.9c-2.6,3.4-4,7.8-7.9,10.1H60c-1.8-1.1-3.7-2.1-4.3-4.4A2.49,2.49,0,0,1,56.4,39.6Z" transform="translate(-1.6 -0.9)"/><path class="cls-18" d="M52.5,50.8c.4-2.9-2.3-4.5-3-7a1,1,0,0,1,.2-1.4c4.4-1.5,7.3,1.8,10.7,3.3l.4.3c-.4.6-.9,1.2-1.3,1.7a17.58,17.58,0,0,0-4.9,4.9.52.52,0,0,1-.7.3C51.9,53.2,51.8,52.3,52.5,50.8Z" transform="translate(-1.6 -0.9)"/><path class="cls-19" d="M74.6,29c-1.4,1.7-2.8,3.4-4.1,5.1-1.5-.6-1.8-1.7-1.4-3.2.7-2.4-1.2.6-1.1-.5a2,2,0,0,1-1.2-1.6c.5-3.4,2.8-5.3,5.4-7.1C75.2,23.3,74.4,26.3,74.6,29Z" transform="translate(-1.6 -0.9)"/><path class="cls-20" d="M87.5,15c-1.4,1.3-2.7,2.7-4.1,4a1.42,1.42,0,0,0-.6-.2c-1.1-.5.5-3.6-2.4-2.5a1.85,1.85,0,0,1-.7-1.2,6.11,6.11,0,0,1,4.4-5.2c1.6-.8,3.1-1.3,4.9-.5C91.7,12.1,87.4,12.9,87.5,15Z" transform="translate(-1.6 -0.9)"/><path class="cls-21" d="M74.6,29c-2.3-1.9-.5-5-2.2-7.1.3-1.8.9-3.2,3-3.2,1.2,1.6,2.9,2.7,4.1,4.3A8.93,8.93,0,0,1,74.6,29Z" transform="translate(-1.6 -0.9)"/><path class="cls-22" d="M79.6,23c-2.4-.4-4.4-1.1-4.2-4.1.9-2.3,1.7-4.7,5-2.9h0c1,1,1.6,2.3,2.9,3l.1.1C82.2,20.3,80.9,21.6,79.6,23Z" transform="translate(-1.6 -0.9)"/><path class="cls-23" d="M54.5,94.8c.9-1.2.6-3.1,2.1-4,.8,5.1-.1,10-1.1,14.9,0-2.7-.1-5.3-.1-8C54.7,96.9,53.7,96.1,54.5,94.8Z" transform="translate(-1.6 -0.9)"/><path class="cls-23" d="M56.4,86.8c-2-5.7-.6-11.6-.8-17.3C57,75.2,56.3,81,56.4,86.8Z" transform="translate(-1.6 -0.9)"/><path class="cls-24" d="M68.4,29.9c.8-.2,2.2-1.1,1.5.9-.5,1.3.2,2.2.6,3.2-.6.6-1.2,1.3-1.8,1.9-.7,0-1.5-.1-2.2-.1C64.7,33.1,66.5,31.5,68.4,29.9Z" transform="translate(-1.6 -0.9)"/><path class="cls-25" d="M87.5,15c-1.6-.1-1.9-.7-.7-2,.9-.9,2.6-1.3,2.6-3.1a.94.94,0,0,1,.1-1.3c1.4.2,2.4.6,2,2.3C90.7,12.8,90.1,14.9,87.5,15Z" transform="translate(-1.6 -0.9)"/><path class="cls-26" d="M54.5,52.7a5.27,5.27,0,0,1,4.9-4.9C58,49.7,57.3,52.2,54.5,52.7Z" transform="translate(-1.6 -0.9)"/><path class="cls-5" d="M53.8,113.9c-2.1-1.4-1-3.3-1.5-5.8,1.1,1.3,1.7,2,2.2,2.7A3,3,0,0,1,53.8,113.9Z" transform="translate(-1.6 -0.9)"/><path class="cls-27" d="M52.5,50.8A2.22,2.22,0,0,0,53.8,53l-.3,1.8C48.7,54.6,51.1,52.6,52.5,50.8Z" transform="translate(-1.6 -0.9)"/><path class="cls-28" d="M91.4,11c-.4-1-.9-1.9-2.1-2.1a.86.86,0,0,1-.3-.6c.2-.2.2-.3.3-.3,2.3-.4,3.6.2,2.9,2.9A2.49,2.49,0,0,0,91.4,11Z" transform="translate(-1.6 -0.9)"/><path class="cls-29" d="M80.4,15.9c-2.5-.4-3.4,1.8-5,2.9l-3,3c-1.6,2.4-4.8,3.6-5,6.9-.8,2.6-1.9,4.7-5.2,3.9,5.5-9.8,13.3-17.3,22.1-24a1.37,1.37,0,0,1,0,2.1C81.9,11.7,81,13.6,80.4,15.9Z" transform="translate(-1.6 -0.9)"/><path class="cls-30" d="M62.2,32.8c2.2-.7,3.6-2.4,5.2-3.9l1,1c0,2.2-2.6,3.6-2,6-3.4-.1-5.4,4-9.1,3C59,36.8,60.6,34.8,62.2,32.8Z" transform="translate(-1.6 -0.9)"/><path class="cls-31" d="M53.6,28.8c-.6-.2-1.7-.4-1.7-.7-.1-4.8-1.9-9.5-.4-14.3Z" transform="translate(-1.6 -0.9)"/><path class="cls-32" d="M46.4,4h1c2.9,1.9,3.8,4.8,3.9,8-1.9-.7-2.7-2.6-3.8-4.1h0A2.29,2.29,0,0,1,46.4,5Z" transform="translate(-1.6 -0.9)"/><path class="cls-33" d="M84.4,10.9V8.8c1.5-1.5,3.3-.5,5-.8a2.77,2.77,0,0,0,.1.9v1A8.7,8.7,0,0,0,84.4,10.9Z" transform="translate(-1.6 -0.9)"/><path class="cls-31" d="M53.4,34.9c.1-2,.2-4.1.2-6.1,1.3,2.9.5,6.1.9,9.1a1.07,1.07,0,0,1-1.4-.1A2.56,2.56,0,0,1,53.4,34.9Z" transform="translate(-1.6 -0.9)"/><path class="cls-11" d="M47.5,7.9c2,.7,2.4,2.9,3.8,4.1a.9.9,0,0,1,0,1C49,12.1,48,10.2,47.5,7.9Z" transform="translate(-1.6 -0.9)"/><path class="cls-34" d="M53.5,37.9h1c.6.6,1.2,1.2,1.9,1.8,0,.7.1,1.5.1,2.2C52.8,42.5,53.2,40.2,53.5,37.9Z" transform="translate(-1.6 -0.9)"/><path class="cls-5" d="M45.5,94.8v-5c.1-4,.1-8,.2-11.9,1-.5,1.3.4,1.8,1,1.7,1.5,0,3.1-.1,4.5-.2,4.5-.1,9,2.2,13.3C47.9,96.3,47.2,94.5,45.5,94.8Z" transform="translate(-1.6 -0.9)"/><path class="cls-35" d="M51.5,70.8c-.1-2.5,0-4.9,1.6-7.2a9.39,9.39,0,0,1-.6,7.2c-.1.7-.1,1.5-.2,2.2h-.6A16.35,16.35,0,0,1,51.5,70.8Z" transform="translate(-1.6 -0.9)"/><path class="cls-36" d="M45.7,73.8c1.3.3,2.5.7,3.8,1,0,1.4,0,2.9-2,3-1.4-.4-1.3-1.8-1.8-2.9Z" transform="translate(-1.6 -0.9)"/><path class="cls-37" d="M54.5,94.8l.9,3c-2.2.3-3.1-.9-2.9-3Z" transform="translate(-1.6 -0.9)"/><path class="cls-38" d="M45.7,74.9c.6,1,1.2,1.9,1.8,2.9v1c-.6-.3-1.2-.7-1.8-1Z" transform="translate(-1.6 -0.9)"/><path class="cls-39" d="M52.5,85.8c-.1,1.4.5,2.9-1,4C52,88.5,50.3,86.6,52.5,85.8Z" transform="translate(-1.6 -0.9)"/><path class="cls-5" d="M49.5,99.5c.8-.1,1,.3.9.8a1.53,1.53,0,0,1-.7,1c-.5.2-.9-.2-.8-.8C48.9,100.1,49.3,99.8,49.5,99.5Z" transform="translate(-1.6 -0.9)"/><path class="cls-40" d="M53.5,37.9c1.1,1.2.4,3.8,3,4,1.1,1.5,3.3,1.9,3.9,3.9-3.8-.1-6.9-3.2-10.9-2.9-2.4-.2-2,2.3-3.1,3.3-1.3-.2-2.3-.7-1.9-2.3.5-2.4-.3-6.4,4.5-3.4,1.2.7,2-.5,2.5-1.6-1.2-1.7-.1-2.9,1-4h.9C53.4,35.9,53.4,36.9,53.5,37.9Z" transform="translate(-1.6 -0.9)"/><path class="cls-41" d="M44.5,43.9l2,2c.3-.5.7-.5,1,0-1.7.9,3.5,4.9-1.8,4.1-.3-.7-.7-1.5-1-2.2-.3-1.9-1.6-3-3.1-4v-.9C42.5,43.2,43.5,43.5,44.5,43.9Z" transform="translate(-1.6 -0.9)"/><path class="cls-11" d="M46.4,5c.4,1,.8,1.9,1.1,2.9-1.6.9-3,2.7-5.1,1C42.6,6.4,44.1,5.3,46.4,5Z" transform="translate(-1.6 -0.9)"/><path class="cls-42" d="M52.5,34.9c-.3,1.3-.7,2.7-1,4-2.1-1-1.8-4-4-5h0C49.7,31.3,50.7,34.9,52.5,34.9Z" transform="translate(-1.6 -0.9)"/><path class="cls-42" d="M47.5,33.9c-2.5-2.3-2.1-4.8,1-6,.3.2.4.4.3.7s-.2.3-.3.3c-.3,1.6-.7,3.3-1,5Z" transform="translate(-1.6 -0.9)"/><path class="cls-43" d="M48.5,28.9v-1c.5-1.6-1-3.7,1-5a6.21,6.21,0,0,1,0,5A9.43,9.43,0,0,0,48.5,28.9Z" transform="translate(-1.6 -0.9)"/><path class="cls-11" d="M49.5,27.9v-5A3.34,3.34,0,0,1,49.5,27.9Z" transform="translate(-1.6 -0.9)"/><path class="cls-44" d="M47.5,45.9h-1c.3-1.4-.7-3.1.6-4.1.8-.6,1.8.3,2.4,1.1v1A3.07,3.07,0,0,0,47.5,45.9Z" transform="translate(-1.6 -0.9)"/><path class="cls-45" d="M83.3,18.9c-1.9,0-2.8-1.1-2.9-3C83,15.2,83.4,16.9,83.3,18.9Z" transform="translate(-1.6 -0.9)"/></svg>